<svg xmlns="http://www.w3.org/2000/svg">
    <symbol id="logo"  fill="none" viewBox="0 0 1046 321">
        <path fill="#fff" d="M45.815 91.714V321H0V91.714h45.815Zm0-91.714v45.857H0V0h45.815Z"/>
        <path fill="#fff" d="M45.815 91.714V321H0V91.714h45.815Zm0-91.714v45.857H0V0h45.815Zm267.997 229.286v45.857h-45.815v-45.857h45.815ZM176.368 45.857V321h-13.286c-9.468 0-17.257-3.057-23.366-9.171-6.108-6.115-9.162-13.91-9.162-23.388V45.857h45.814Zm91.629 229.286V321h-91.629v-45.857h91.629Zm0-183.429v45.857H84.739V91.714h183.258Z"/>
        <path fill="#fff" d="M313.812 229.286v45.857h-45.815v-45.857h45.815ZM176.368 45.857V321h-13.286c-9.468 0-17.257-3.057-23.366-9.171-6.108-6.115-9.162-13.91-9.162-23.388V45.857h45.814Zm91.629 229.286V321h-91.629v-45.857h91.629Zm0-183.429v45.857H84.739V91.714h183.258Zm254.414 0h45.815V321h-45.815V91.714Zm-183.258 89.422c0-19.566 5.04-36.38 15.119-50.443 10.079-14.063 23.823-24.763 41.233-32.1 17.715-7.643 37.262-11.464 58.642-11.464 21.075 0 40.317 3.821 57.727 11.464 17.409 7.337 31.154 18.037 41.233 32.1 10.079 14.063 15.119 30.877 15.119 50.443v45.398c0 19.566-5.04 36.533-15.119 50.902-10.079 14.063-23.824 24.915-41.233 32.558-17.41 7.337-36.652 11.006-57.727 11.006-21.38 0-40.927-3.669-58.642-11.006-17.41-7.643-31.154-18.495-41.233-32.558-10.079-14.369-15.119-31.336-15.119-50.902v-45.398Zm45.814 38.978c0 20.483 7.025 34.852 21.075 43.106 14.355 7.949 30.391 11.923 48.105 11.923 17.105 0 32.682-3.974 46.731-11.923 14.05-8.254 21.075-22.623 21.075-43.106v-32.558c0-20.483-7.025-34.699-21.075-42.647-13.744-7.949-29.321-11.923-46.731-11.923-17.714 0-33.75 3.974-48.105 11.923-14.05 7.948-21.075 22.164-21.075 42.647v32.558Zm91.63-38.978v45.857h-45.815v-45.857h45.815Z"/>
        <path fill="#fff" d="M522.411 91.714h45.815V321h-45.815V91.714Zm-183.258 89.422c0-19.566 5.04-36.38 15.119-50.443 10.079-14.063 23.823-24.763 41.233-32.1 17.715-7.643 37.262-11.464 58.642-11.464 21.075 0 40.317 3.821 57.727 11.464 17.409 7.337 31.154 18.037 41.233 32.1 10.079 14.063 15.119 30.877 15.119 50.443v45.398c0 19.566-5.04 36.533-15.119 50.902-10.079 14.063-23.824 24.915-41.233 32.558-17.41 7.337-36.652 11.006-57.727 11.006-21.38 0-40.927-3.669-58.642-11.006-17.41-7.643-31.154-18.495-41.233-32.558-10.079-14.369-15.119-31.336-15.119-50.902v-45.398Zm45.814 38.978c0 20.483 7.025 34.852 21.075 43.106 14.355 7.949 30.391 11.923 48.105 11.923 17.105 0 32.682-3.974 46.731-11.923 14.05-8.254 21.075-22.623 21.075-43.106v-32.558c0-20.483-7.025-34.699-21.075-42.647-13.744-7.949-29.321-11.923-46.731-11.923-17.714 0-33.75 3.974-48.105 11.923-14.05 7.948-21.075 22.164-21.075 42.647v32.558Zm91.63-38.978v45.857h-45.815v-45.857h45.815Zm340.33 11.464c0-20.483-7.025-34.699-21.075-42.647-14.049-8.254-29.626-12.382-46.73-12.382-17.715 0-33.75 4.128-48.106 12.382-14.049 7.948-21.074 22.164-21.074 42.647v32.559l-45.815 6.42V186.18c0-19.566 5.04-36.38 15.119-50.443 10.079-14.368 23.823-25.221 41.233-32.558 17.715-7.643 37.262-11.465 58.643-11.465 21.074 0 40.164 3.822 57.268 11.465 17.409 7.337 31.154 18.19 41.233 32.558 10.079 14.063 15.119 30.877 15.119 50.443V321h-45.815V192.6Zm-136.985-13.757V321h-45.815V178.843h45.815Zm366.058 96.3V321h-45.81v-45.857H1046ZM999.727 192.6c0-20.483-7.025-34.699-21.074-42.647-14.05-8.254-29.627-12.382-46.731-12.382-17.715 0-33.75 4.128-48.106 12.382-14.355 7.948-21.532 22.164-21.532 42.647v32.559l-45.815 6.42V186.18c0-19.566 5.04-36.38 15.119-50.443 10.079-14.368 23.823-25.221 41.233-32.558 17.715-7.643 37.262-11.465 58.642-11.465 21.075 0 40.317 3.822 57.727 11.465 17.409 7.337 31.154 18.19 41.233 32.558 10.079 14.063 15.119 30.877 15.119 50.443V321h-45.815V192.6Z"/>
    </symbol>
</svg>
